<?xml version="1.0" encoding="UTF-8"?>
<svg xmlns="http://www.w3.org/2000/svg" xmlns:xlink="http://www.w3.org/1999/xlink" width="112pt" height="26pt" viewBox="0 0 112 26" version="1.1">
<defs>
<clipPath id="clip1">
  <path d="M 4.324219 0 L 107.675781 0 C 110.0625 0 112 1.941406 112 4.332031 L 112 21.667969 C 112 24.058594 110.0625 26 107.675781 26 L 4.324219 26 C 1.9375 26 0 24.058594 0 21.667969 L 0 4.332031 C 0 1.941406 1.9375 0 4.324219 0 Z M 4.324219 0 "/>
</clipPath>
<clipPath id="clip2">
  <path d="M 28 0 L 112 0 L 112 26 L 28 26 Z M 28 0 "/>
</clipPath>
<clipPath id="clip3">
  <path d="M 4.324219 0 L 107.675781 0 C 110.0625 0 112 1.941406 112 4.332031 L 112 21.667969 C 112 24.058594 110.0625 26 107.675781 26 L 4.324219 26 C 1.9375 26 0 24.058594 0 21.667969 L 0 4.332031 C 0 1.941406 1.9375 0 4.324219 0 Z M 4.324219 0 "/>
</clipPath>
<clipPath id="clip4">
  <path d="M 47 8 L 58 8 L 58 19 L 47 19 Z M 47 8 "/>
</clipPath>
<clipPath id="clip5">
  <path d="M 4.324219 0 L 107.675781 0 C 110.0625 0 112 1.941406 112 4.332031 L 112 21.667969 C 112 24.058594 110.0625 26 107.675781 26 L 4.324219 26 C 1.9375 26 0 24.058594 0 21.667969 L 0 4.332031 C 0 1.941406 1.9375 0 4.324219 0 Z M 4.324219 0 "/>
</clipPath>
<clipPath id="clip6">
  <path d="M 36 7 L 47 7 L 47 19 L 36 19 Z M 36 7 "/>
</clipPath>
<clipPath id="clip7">
  <path d="M 4.324219 0 L 107.675781 0 C 110.0625 0 112 1.941406 112 4.332031 L 112 21.667969 C 112 24.058594 110.0625 26 107.675781 26 L 4.324219 26 C 1.9375 26 0 24.058594 0 21.667969 L 0 4.332031 C 0 1.941406 1.9375 0 4.324219 0 Z M 4.324219 0 "/>
</clipPath>
<clipPath id="clip8">
  <path d="M 58 8 L 74 8 L 74 18 L 58 18 Z M 58 8 "/>
</clipPath>
<clipPath id="clip9">
  <path d="M 4.324219 0 L 107.675781 0 C 110.0625 0 112 1.941406 112 4.332031 L 112 21.667969 C 112 24.058594 110.0625 26 107.675781 26 L 4.324219 26 C 1.9375 26 0 24.058594 0 21.667969 L 0 4.332031 C 0 1.941406 1.9375 0 4.324219 0 Z M 4.324219 0 "/>
</clipPath>
<clipPath id="clip10">
  <path d="M 74 8 L 90 8 L 90 18 L 74 18 Z M 74 8 "/>
</clipPath>
<clipPath id="clip11">
  <path d="M 4.324219 0 L 107.675781 0 C 110.0625 0 112 1.941406 112 4.332031 L 112 21.667969 C 112 24.058594 110.0625 26 107.675781 26 L 4.324219 26 C 1.9375 26 0 24.058594 0 21.667969 L 0 4.332031 C 0 1.941406 1.9375 0 4.324219 0 Z M 4.324219 0 "/>
</clipPath>
<clipPath id="clip12">
  <path d="M 91 7 L 104 7 L 104 18 L 91 18 Z M 91 7 "/>
</clipPath>
<clipPath id="clip13">
  <path d="M 4.324219 0 L 107.675781 0 C 110.0625 0 112 1.941406 112 4.332031 L 112 21.667969 C 112 24.058594 110.0625 26 107.675781 26 L 4.324219 26 C 1.9375 26 0 24.058594 0 21.667969 L 0 4.332031 C 0 1.941406 1.9375 0 4.324219 0 Z M 4.324219 0 "/>
</clipPath>
<clipPath id="clip14">
  <path d="M 7 6 L 22 6 L 22 13 L 7 13 Z M 7 6 "/>
</clipPath>
<clipPath id="clip15">
  <path d="M 4.324219 0 L 107.675781 0 C 110.0625 0 112 1.941406 112 4.332031 L 112 21.667969 C 112 24.058594 110.0625 26 107.675781 26 L 4.324219 26 C 1.9375 26 0 24.058594 0 21.667969 L 0 4.332031 C 0 1.941406 1.9375 0 4.324219 0 Z M 4.324219 0 "/>
</clipPath>
<clipPath id="clip16">
  <path d="M 7 13 L 22 13 L 22 20 L 7 20 Z M 7 13 "/>
</clipPath>
<clipPath id="clip17">
  <path d="M 4.324219 0 L 107.675781 0 C 110.0625 0 112 1.941406 112 4.332031 L 112 21.667969 C 112 24.058594 110.0625 26 107.675781 26 L 4.324219 26 C 1.9375 26 0 24.058594 0 21.667969 L 0 4.332031 C 0 1.941406 1.9375 0 4.324219 0 Z M 4.324219 0 "/>
</clipPath>
</defs>
<g id="surface1">
<g clip-path="url(#clip1)" clip-rule="nonzero">
<path style=" stroke:none;fill-rule:nonzero;fill:rgb(18.823529%,31.764706%,98.823529%);fill-opacity:1;" d="M 4.324219 0 L 107.675781 0 C 110.0625 0 112 1.941406 112 4.332031 L 112 21.667969 C 112 24.058594 110.0625 26 107.675781 26 L 4.324219 26 C 1.9375 26 0 24.058594 0 21.667969 L 0 4.332031 C 0 1.941406 1.9375 0 4.324219 0 Z M 4.324219 0 "/>
</g>
<g clip-path="url(#clip2)" clip-rule="nonzero">
<g clip-path="url(#clip3)" clip-rule="nonzero">
<path style=" stroke:none;fill-rule:nonzero;fill:rgb(100%,100%,100%);fill-opacity:1;" d="M 28.972656 0 L 112 0 L 112 26 L 28.972656 26 Z M 28.972656 0 "/>
</g>
</g>
<g clip-path="url(#clip4)" clip-rule="nonzero">
<g clip-path="url(#clip5)" clip-rule="nonzero">
<path style=" stroke:none;fill-rule:nonzero;fill:rgb(0%,0%,0%);fill-opacity:1;" d="M 52.554688 18.089844 C 51.285156 18.089844 49.707031 17.726562 48.859375 16.765625 C 48.03125 15.785156 47.625 14.605469 47.625 13.214844 L 47.625 9.902344 C 47.625 9.605469 47.625 9.382812 47.640625 9.242188 C 47.671875 9.101562 47.71875 8.941406 47.8125 8.753906 C 47.984375 8.40625 48.46875 8.25 49.285156 8.25 C 50.160156 8.25 50.675781 8.484375 50.832031 8.972656 C 50.910156 9.179688 50.941406 9.492188 50.941406 9.9375 L 50.941406 13.246094 C 50.941406 13.769531 51.082031 14.179688 51.378906 14.460938 C 51.679688 14.746094 52.070312 14.902344 52.570312 14.902344 C 53.070312 14.902344 53.476562 14.746094 53.777344 14.445312 C 54.089844 14.148438 54.246094 13.753906 54.246094 13.246094 L 54.246094 9.871094 C 54.246094 9.589844 54.246094 9.367188 54.261719 9.226562 C 54.292969 9.066406 54.355469 8.910156 54.449219 8.722656 C 54.605469 8.390625 55.089844 8.230469 55.902344 8.230469 C 56.703125 8.230469 57.171875 8.40625 57.359375 8.738281 C 57.453125 8.925781 57.5 9.101562 57.515625 9.242188 C 57.546875 9.382812 57.546875 9.589844 57.546875 9.886719 L 57.546875 13.230469 C 57.546875 14.683594 57.078125 15.898438 56.21875 16.765625 C 55.324219 17.632812 53.710938 18.042969 52.554688 18.089844 Z M 52.554688 18.089844 "/>
</g>
</g>
<g clip-path="url(#clip6)" clip-rule="nonzero">
<g clip-path="url(#clip7)" clip-rule="nonzero">
<path style=" stroke:none;fill-rule:nonzero;fill:rgb(0%,0%,0%);fill-opacity:1;" d="M 43.664062 13.074219 L 45.746094 15.203125 C 46.199219 15.660156 46.417969 16.054688 46.417969 16.386719 C 46.417969 16.703125 46.199219 17.082031 45.746094 17.539062 C 45.292969 17.980469 44.917969 18.199219 44.605469 18.199219 C 44.289062 18.199219 43.914062 17.980469 43.460938 17.523438 L 41.394531 15.410156 L 39.296875 17.523438 C 38.84375 17.980469 38.46875 18.199219 38.15625 18.199219 C 37.859375 18.199219 37.46875 17.980469 37.011719 17.539062 C 36.558594 17.082031 36.324219 16.6875 36.324219 16.371094 C 36.324219 16.039062 36.542969 15.644531 36.996094 15.1875 L 39.078125 13.058594 L 37.011719 10.960938 C 36.558594 10.503906 36.324219 10.109375 36.324219 9.792969 C 36.324219 9.460938 36.542969 9.066406 36.996094 8.609375 C 37.46875 8.152344 37.84375 7.933594 38.140625 7.933594 C 38.453125 7.933594 38.828125 8.152344 39.28125 8.609375 L 41.394531 10.738281 L 43.460938 8.625 C 43.914062 8.167969 44.289062 7.949219 44.605469 7.949219 C 44.917969 7.949219 45.292969 8.167969 45.746094 8.625 C 46.199219 9.082031 46.417969 9.476562 46.417969 9.808594 C 46.417969 10.125 46.199219 10.503906 45.746094 10.960938 Z M 43.664062 13.074219 "/>
</g>
</g>
<g clip-path="url(#clip8)" clip-rule="nonzero">
<g clip-path="url(#clip9)" clip-rule="nonzero">
<path style=" stroke:none;fill-rule:evenodd;fill:rgb(0%,0%,0%);fill-opacity:1;" d="M 66.125 9.035156 C 65.324219 8.328125 64.355469 8.042969 63.261719 8.042969 C 61.992188 8.042969 60.960938 8.515625 60.097656 9.382812 C 59.238281 10.25 58.769531 11.464844 58.769531 12.917969 L 58.769531 16.261719 C 58.769531 16.542969 58.785156 16.765625 58.800781 16.90625 C 58.816406 17.0625 58.863281 17.222656 58.957031 17.410156 C 59.128906 17.757812 59.613281 17.917969 60.410156 17.917969 C 61.210938 17.917969 61.695312 17.757812 61.867188 17.425781 C 61.960938 17.238281 62.023438 17.0625 62.054688 16.921875 C 62.070312 16.78125 62.070312 16.574219 62.070312 16.277344 L 62.070312 12.917969 C 62.070312 12.425781 62.226562 12.015625 62.539062 11.71875 C 62.835938 11.417969 63.214844 11.417969 63.277344 11.417969 C 63.339844 11.417969 63.699219 11.417969 63.980469 11.703125 C 64.261719 11.984375 64.417969 12.394531 64.417969 12.917969 L 64.417969 16.246094 C 64.417969 16.527344 64.433594 16.75 64.449219 16.890625 C 64.464844 17.046875 64.511719 17.207031 64.605469 17.394531 C 64.777344 17.742188 65.261719 17.898438 66.0625 17.898438 C 66.0625 17.898438 66.0625 17.898438 66.078125 17.898438 C 66.078125 17.898438 66.078125 17.898438 66.09375 17.898438 C 66.890625 17.898438 67.390625 17.726562 67.5625 17.394531 C 67.65625 17.207031 67.707031 17.046875 67.734375 16.90625 C 67.75 16.765625 67.75 16.542969 67.75 16.246094 L 67.75 12.933594 C 67.75 12.835938 67.75 12.757812 67.75 12.664062 C 67.800781 12.285156 67.957031 11.96875 68.207031 11.71875 C 68.503906 11.417969 68.878906 11.417969 68.941406 11.417969 C 69.003906 11.417969 69.363281 11.417969 69.644531 11.703125 C 69.925781 11.984375 70.082031 12.394531 70.082031 12.917969 L 70.082031 16.226562 C 70.082031 16.671875 70.113281 17 70.191406 17.191406 C 70.351562 17.664062 70.851562 17.917969 71.742188 17.917969 C 72.539062 17.917969 73.042969 17.742188 73.214844 17.410156 C 73.308594 17.222656 73.355469 17.0625 73.386719 16.921875 C 73.402344 16.78125 73.402344 16.558594 73.402344 16.261719 L 73.402344 12.949219 C 73.402344 11.558594 72.996094 10.378906 72.164062 9.398438 C 71.320312 8.4375 70.210938 8.058594 68.941406 8.058594 C 67.828125 8.042969 66.90625 8.390625 66.125 9.035156 Z M 66.125 9.035156 "/>
</g>
</g>
<g clip-path="url(#clip10)" clip-rule="nonzero">
<g clip-path="url(#clip11)" clip-rule="nonzero">
<path style=" stroke:none;fill-rule:evenodd;fill:rgb(0%,0%,0%);fill-opacity:1;" d="M 81.808594 9.035156 C 81.007812 8.328125 80.039062 8.042969 78.941406 8.042969 C 77.675781 8.042969 76.640625 8.515625 75.78125 9.382812 C 74.921875 10.25 74.449219 11.464844 74.449219 12.917969 L 74.449219 16.261719 C 74.449219 16.542969 74.464844 16.765625 74.480469 16.90625 C 74.496094 17.0625 74.542969 17.222656 74.636719 17.410156 C 74.808594 17.757812 75.296875 17.917969 76.09375 17.917969 C 76.890625 17.917969 77.378906 17.757812 77.550781 17.425781 C 77.644531 17.238281 77.707031 17.0625 77.738281 16.921875 C 77.753906 16.78125 77.753906 16.574219 77.753906 16.277344 L 77.753906 12.917969 C 77.753906 12.425781 77.910156 12.015625 78.222656 11.71875 C 78.519531 11.417969 78.894531 11.417969 78.957031 11.417969 C 79.019531 11.417969 79.378906 11.417969 79.664062 11.703125 C 79.945312 11.984375 80.101562 12.394531 80.101562 12.902344 L 80.101562 16.261719 C 80.101562 16.542969 80.117188 16.765625 80.132812 16.90625 C 80.148438 17.0625 80.195312 17.222656 80.289062 17.410156 C 80.460938 17.757812 80.945312 17.917969 81.742188 17.917969 C 81.742188 17.917969 81.742188 17.917969 81.757812 17.917969 C 81.757812 17.917969 81.757812 17.917969 81.773438 17.917969 C 82.574219 17.917969 83.074219 17.742188 83.246094 17.410156 C 83.339844 17.222656 83.386719 17.0625 83.417969 16.921875 C 83.433594 16.78125 83.433594 16.558594 83.433594 16.261719 L 83.433594 12.949219 C 83.433594 12.851562 83.433594 12.773438 83.433594 12.679688 C 83.480469 12.300781 83.636719 11.984375 83.886719 11.734375 C 84.183594 11.433594 84.5625 11.433594 84.625 11.433594 C 84.6875 11.433594 85.046875 11.433594 85.328125 11.71875 C 85.609375 12 85.765625 12.410156 85.765625 12.933594 L 85.765625 16.246094 C 85.765625 16.6875 85.796875 17.015625 85.875 17.207031 C 86.03125 17.679688 86.53125 17.933594 87.425781 17.933594 C 88.222656 17.933594 88.722656 17.757812 88.894531 17.425781 C 88.992188 17.238281 89.039062 17.082031 89.070312 16.9375 C 89.085938 16.796875 89.085938 16.574219 89.085938 16.277344 L 89.085938 12.964844 C 89.085938 11.574219 88.675781 10.394531 87.847656 9.414062 C 87.003906 8.453125 85.890625 8.074219 84.625 8.074219 C 83.511719 8.042969 82.589844 8.390625 81.808594 9.035156 Z M 81.808594 9.035156 "/>
</g>
</g>
<g clip-path="url(#clip12)" clip-rule="nonzero">
<g clip-path="url(#clip13)" clip-rule="nonzero">
<path style=" stroke:none;fill-rule:evenodd;fill:rgb(18.823529%,31.764706%,98.823529%);fill-opacity:1;" d="M 103.390625 8.246094 C 104.09375 8.894531 104.15625 10.015625 103.515625 10.722656 L 97.613281 17.269531 C 97.285156 17.632812 96.832031 17.835938 96.347656 17.835938 C 95.859375 17.835938 95.390625 17.648438 95.0625 17.285156 L 91.902344 13.941406 C 91.242188 13.246094 91.261719 12.128906 91.964844 11.464844 C 92.652344 10.804688 93.765625 10.820312 94.421875 11.527344 L 96.300781 13.515625 L 100.933594 8.375 C 101.574219 7.664062 102.667969 7.601562 103.390625 8.246094 Z M 103.390625 8.246094 "/>
</g>
</g>
<g clip-path="url(#clip14)" clip-rule="nonzero">
<g clip-path="url(#clip15)" clip-rule="nonzero">
<path style=" stroke:none;fill-rule:nonzero;fill:rgb(100%,100%,100%);fill-opacity:1;" d="M 14.582031 12.609375 C 13.960938 12.609375 13.34375 12.480469 12.773438 12.230469 C 12.203125 11.984375 11.691406 11.617188 11.265625 11.160156 L 7.875 7.503906 C 7.828125 7.457031 7.800781 7.398438 7.789062 7.332031 C 7.777344 7.265625 7.785156 7.199219 7.8125 7.136719 C 7.839844 7.078125 7.882812 7.027344 7.9375 6.988281 C 7.992188 6.953125 8.058594 6.933594 8.125 6.933594 L 9.941406 6.933594 C 10.097656 6.933594 10.25 6.964844 10.394531 7.027344 C 10.535156 7.089844 10.664062 7.179688 10.769531 7.296875 L 12.875 9.566406 C 13.246094 9.980469 13.753906 10.25 14.304688 10.328125 C 14.660156 10.371094 15.023438 10.332031 15.359375 10.207031 C 15.695312 10.082031 16 9.882812 16.242188 9.617188 L 18.394531 7.296875 C 18.5 7.179688 18.628906 7.089844 18.773438 7.027344 C 18.917969 6.964844 19.070312 6.933594 19.226562 6.933594 L 21.042969 6.933594 C 21.109375 6.933594 21.175781 6.953125 21.230469 6.988281 C 21.285156 7.027344 21.328125 7.078125 21.355469 7.136719 C 21.382812 7.199219 21.390625 7.265625 21.378906 7.332031 C 21.367188 7.394531 21.335938 7.457031 21.292969 7.503906 L 17.902344 11.160156 C 17.476562 11.617188 16.964844 11.984375 16.394531 12.230469 C 15.820312 12.480469 15.207031 12.609375 14.582031 12.609375 Z M 14.582031 12.609375 "/>
</g>
</g>
<g clip-path="url(#clip16)" clip-rule="nonzero">
<g clip-path="url(#clip17)" clip-rule="nonzero">
<path style=" stroke:none;fill-rule:nonzero;fill:rgb(100%,100%,100%);fill-opacity:1;" d="M 14.582031 13.738281 C 13.960938 13.738281 13.34375 13.867188 12.773438 14.117188 C 12.203125 14.367188 11.691406 14.730469 11.265625 15.1875 L 7.875 18.84375 C 7.828125 18.890625 7.800781 18.953125 7.789062 19.019531 C 7.777344 19.082031 7.785156 19.148438 7.8125 19.210938 C 7.839844 19.273438 7.882812 19.324219 7.9375 19.359375 C 7.992188 19.394531 8.058594 19.414062 8.125 19.414062 L 9.941406 19.414062 C 10.097656 19.414062 10.25 19.382812 10.394531 19.320312 C 10.535156 19.257812 10.664062 19.167969 10.769531 19.054688 L 12.875 16.785156 C 13.246094 16.367188 13.753906 16.097656 14.304688 16.023438 C 14.660156 15.976562 15.023438 16.019531 15.359375 16.140625 C 15.695312 16.265625 16 16.46875 16.242188 16.730469 L 18.394531 19.054688 C 18.5 19.167969 18.628906 19.257812 18.773438 19.320312 C 18.917969 19.382812 19.070312 19.417969 19.226562 19.414062 L 21.042969 19.414062 C 21.109375 19.414062 21.175781 19.394531 21.230469 19.359375 C 21.285156 19.324219 21.328125 19.273438 21.355469 19.210938 C 21.382812 19.152344 21.390625 19.082031 21.378906 19.019531 C 21.367188 18.953125 21.335938 18.890625 21.292969 18.84375 L 17.902344 15.1875 C 17.476562 14.730469 16.964844 14.367188 16.394531 14.117188 C 15.820312 13.867188 15.207031 13.738281 14.582031 13.738281 Z M 14.582031 13.738281 "/>
</g>
</g>
</g>
</svg>
